# AST/ASF file generated using VICON BodyLanguage
# -----------------------------------------------
:version 1.10
:name VICON
:units
  mass 1.0
  length 0.45
  angle deg
:documentation
   .ast/.asf automatically generated from VICON data using
   VICON BodyBuilder and BodyLanguage model FoxedUp or BRILLIANT.MOD
:root
   order TX TY TZ RX RY RZ
   axis XYZ
   position 0 0 0  
   orientation 0 0 0 
:bonedata
  begin
     id 1 
     name lhipjoint
     direction 0.621036 -0.695554 0.361275 
     length 2.46325 
     axis 0 0 0  XYZ
  end
  begin
     id 2 
     name lfemur
     direction 0.34202 -0.939693 0  
     length 6.54784  
     axis 0 0 20  XYZ
    dof rx ry rz
    limits (-160.0 20.0)
           (-70.0 70.0)
           (-60.0 70.0)
  end
  begin
     id 3 
     name ltibia
     direction 0.34202 -0.939693 0   
     length 7.84737   
     axis 0 0 20   XYZ
    dof rx
    limits (-10.0 170.0)
  end
  begin
     id 4 
     name lfoot
     direction 0.0790693 -0.217241 0.97291   
     length 2.59747   
     axis -90 7.62852e-016 20   XYZ
    dof rx rz
    limits (-45.0 90.0)
           (-70.0 20.0)
  end
  begin
     id 5 
     name ltoes
     direction 1.53572e-011 -4.21898e-011 1   
     length 1.29919   
     axis -90 7.62852e-016 20   XYZ
    dof rx
    limits (-90.0 20.0)
  end
  begin
     id 6 
     name rhipjoint
     direction -0.602353 -0.708375 0.367935   
     length 2.41867  
     axis 0 0 0  XYZ 
  end
  begin
     id 7 
     name rfemur
     direction -0.34202 -0.939693 0   
     length 6.92065   
     axis 0 0 -20   XYZ
    dof rx ry rz
    limits (-160.0 20.0)
           (-70.0 70.0)
           (-70.0 60.0)
  end
  begin
     id 8 
     name rtibia
     direction -0.34202 -0.939693 0   
     length 7.88883   
     axis 0 0 -20   XYZ
    dof rx
    limits (-10.0 170.0)
 end
 begin
     id 9 
     name rfoot
     direction -0.0768692 -0.211196 0.974416   
     length 2.43714  
     axis -90 -7.62852e-016 -20   XYZ
    dof rx rz
    limits (-45.0 90.0)
           (-20.0 70.0)
  end
  begin
     id 10 
     name rtoes
     direction -1.53575e-011 -4.21933e-011 1   
     length 1.22113   
     axis -90 -7.62852e-016 -20   XYZ
    dof rx
    limits (-90.0 20.0)
  end
  begin
     id 11 
     name lowerback
     direction 0.0197937 0.98943 -0.143655   
     length 2.16931   
     axis 0 0 0   XYZ
    dof rx ry rz
    limits (-20.0 45.0)
           (-30.0 30.0)
           (-30.0 30.0)
  end
  begin
     id 12 
     name upperback
     direction -0.00183968 0.999975 0.00684288   
     length 2.17221   
     axis 0 0 0   XYZ
    dof rx ry rz
    limits (-20.0 45.0)
           (-30.0 30.0)
           (-30.0 30.0)
  end
  begin
     id 13 
     name thorax
     direction -0.00950244 0.997208 0.0740685   
     length 2.22549   
     axis 0 0 0   XYZ
    dof rx ry rz
    limits (-20.0 45.0)
           (-30.0 30.0)
           (-30.0 30.0)
  end
  begin
     id 14 
     name lowerneck
     direction 0.0218238 0.996215 0.0841425   
     length 1.77269   
     axis 0 0 0   XYZ
    dof rx ry rz
    limits (-20.0 45.0)
           (-30.0 30.0)
           (-30.0 30.0)
  end
  begin
     id 15 
     name upperneck
     direction -0.00430652 0.994214 -0.107332   
     length 1.76534   
     axis 0 0 0   XYZ
    dof rx ry rz
    limits (-20.0 45.0)
           (-30.0 30.0)
           (-30.0 30.0)
  end
  begin
     id 16
     name head
     direction -0.00328946 0.998959 -0.0454998  
     length 1.82634  
     axis 0 0 0   XYZ
    dof rx ry rz
    limits (-20.0 45.0)
           (-30.0 30.0)
           (-30.0 30.0)
  end
  begin
     id 17 
     name lclavicle
     direction 0.970962 0.239191 0.00450212  
     length 3.84872  
     axis 0 0 0   XYZ
    dof ry rz
    limits (-20.0 10.0)
           (0.0 20.0)
  end
  begin
     id 18 
     name lhumerus
     direction 1 -4.48966e-011 5.74696e-028   
     length 5.22771   
     axis 180 -30 -90   XYZ
    dof rx ry rz
    limits (-60.0 90.0)
           (-90.0 90.0)
           (-90.0 90.0)
  end
  begin
     id 19
     name lradius
     direction 1 -4.4896e-011 4.25109e-027   
     length 3.45251   
     axis 180 -30 -90   XYZ
    dof rx
    limits (-10.0 170.0)
  end
  begin
     id 20
     name lwrist
     direction 1 -4.48971e-011 1.15382e-027   
     length 1.72626   
     axis -5.52449e-016 90 90   XYZ
    dof ry
    limits (-180.0 0.0)
 end
  begin
     id 21 
     name lhand
     direction 1 -4.49034e-011 2.30765e-027   
     length 0.552119   
     axis -1.47248e-015 90 90   XYZ
    dof rx rz
    limits (-90.0 90.0)
           (-45.0 45.0)
  end
  begin
     id 22 
     name lfingers
     direction 1 -4.48951e-011 4.61529e-027   
     length 0.445133   
     axis -2.94495e-015 90 90   XYZ
    dof rx
    limits (0.0 90.0)
  end
  begin
     id 23
     name lthumb
     direction 0.707107 -6.34991e-011 0.707107   
     length 0.639124   
     axis -90 45 2.85299e-015   XYZ
    dof rx rz
    limits (-45.0 45.0)
           (-45.0 45.0)
  end
  begin
     id 24 
     name rclavicle
     direction -0.97424 0.222511 -0.0366699   
     length 3.73439  
     axis 0 0 0   XYZ 
    dof ry rz
    limits (-10.0 20.0)
           (-20.0 0.0)
  end
  begin
     id 25 
     name rhumerus
     direction -1 -4.48956e-011 -4.97258e-028  
     length 5.2398   
     axis 180 30 90   XYZ
    dof rx ry rz
    limits (-90.0 60.0)
           (-90.0 90.0)
           (-90.0 90.0)
  end
  begin
     id 26 
     name rradius
     direction -1 -4.4897e-011 -1.72611e-027   
     length 3.48042   
     axis 180 30 90   XYZ
    dof rx
    limits (-10.0 170.0)
  end
  begin
     id 27 
     name rwrist
     direction -1 -4.48976e-011 1.15382e-027   
     length 1.74021   
     axis -5.52449e-016 -90 -90   XYZ
    dof ry
    limits (-180.0 0.0)
  end
  begin
     id 28
     name rhand
     direction -1 -4.48963e-011 2.30765e-027   
     length 0.618713   
     axis -1.47248e-015 -90 -90   XYZ
    dof rx rz
    limits (-90.0 90.0)
           (-45.0 45.0)
  end
  begin
     id 29
     name rfingers
     direction -1 -4.4888e-011 4.61529e-027   
     length 0.498823   
     axis -2.94495e-015 -90 -90   XYZ
    dof rx
    limits (0.0 90.0)
  end
  begin
     id 30
     name rthumb
     direction -0.707107 -6.34968e-011 0.707107   
     length 0.716213   
     axis -90 -45 -2.85299e-015   XYZ
    dof rx rz
    limits (-45.0 45.0)
           (-45.0 45.0)
  end
:hierarchy
  begin
    root lhipjoint rhipjoint lowerback
    lhipjoint lfemur
    lfemur ltibia
    ltibia lfoot
    lfoot ltoes
    rhipjoint rfemur
    rfemur rtibia
    rtibia rfoot
    rfoot rtoes
    lowerback upperback
    upperback thorax
    thorax lowerneck lclavicle rclavicle
    lowerneck upperneck
    upperneck head
    lclavicle lhumerus
    lhumerus lradius
    lradius lwrist
    lwrist lhand lthumb
    lhand lfingers
    rclavicle rhumerus
    rhumerus rradius
    rradius rwrist
    rwrist rhand rthumb
    rhand rfingers
  end

#!OML:ASF G:\JayActor3\Patient Classification 1\Patient 1\Session 5\male.ASF
:FULLY-SPECIFIED
:DEGREES
200
root -40.3139 15.8725 -4.98111 -145.504 87.1031 -165.009
lowerback 33.1331 -2.13469 1.8296
upperback 8.91867 -1.22287 -1.26643
thorax -7.21073 -0.162189 -1.92401
lowerneck 3.33851 -0.970977 1.52204
upperneck -27.2145 0.497311 3.24308
head -9.06337 0.172538 0.741048
rclavicle -3.97569e-015 1.2921e-014
rhumerus -27.4523 6.11284 -89.1938
rradius 49.8131
rwrist -7.47466
rhand -21.2549 -10.0902
rfingers 7.12502
rthumb 5.12824 -40.0081
lclavicle -3.97569e-015 1.2921e-014
lhumerus -25.3422 -0.678743 81.5455
lradius 44.7332
lwrist 27.1531
lhand -18.8706 14.3887
lfingers 7.12502
lthumb 7.43002 44.2382
rfemur -67.8873 -5.9778 21.6266
rtibia 80.0456
rfoot 1.96136 -3.62465
rtoes -13.2467
lfemur -67.9371 10.0114 -20.2811
ltibia 76.121
lfoot 10.4092 -9.64375
ltoes -34.7329
201
root -40.3179 15.8674 -4.97945 -145.129 87.0773 -164.709
lowerback 33.3601 -2.16171 1.86916
upperback 8.9217 -1.23114 -1.26143
thorax -7.29399 -0.163575 -1.93509
lowerneck 3.36131 -0.976528 1.50609
upperneck -27.3171 0.503304 3.27027
head -9.10417 0.175439 0.752955
rclavicle 5.56597e-015 1.13307e-014
rhumerus -27.4339 6.21204 -89.2369
rradius 49.9786
rwrist -7.50377
rhand -21.2905 -10.0944
rfingers 7.12502
rthumb 5.09386 -40.0132
lclavicle 5.56597e-015 1.13307e-014
lhumerus -25.2918 -0.700888 81.556
lradius 44.8066
lwrist 27.1759
lhand -18.8969 14.1908
lfingers 7.12502
lthumb 7.40471 44.0412
rfemur -68.0363 -5.94454 21.612
rtibia 80.1117
rfoot 2.06472 -3.60255
rtoes -13.616
lfemur -68.1306 9.92581 -20.22
ltibia 76.2197
lfoot 10.5083 -9.60394
ltoes -34.8212
202
root -40.3209 15.8638 -4.97781 -145.016 87.0633 -164.655
lowerback 33.5862 -2.18183 1.89642
upperback 8.92391 -1.23539 -1.26424
thorax -7.3772 -0.162944 -1.94927
lowerneck 3.39049 -0.983913 1.50752
upperneck -27.4074 0.505398 3.28827
head -9.14184 0.17526 0.759065
rclavicle -5.96354e-015 -9.74045e-015
rhumerus -27.4369 6.29906 -89.2847
rradius 50.1464
rwrist -7.5234
rhand -21.2912 -10.0921
rfingers 7.12502
rthumb 5.09316 -40.0109
lclavicle -5.96354e-015 -9.74045e-015
lhumerus -25.2533 -0.73877 81.5633
lradius 44.8789
lwrist 27.2057
lhand -18.8945 14.0743
lfingers 7.12502
lthumb 7.407 43.9246
rfemur -68.1552 -5.88545 21.5435
rtibia 80.1636
rfoot 2.19859 -3.55277
rtoes -14.0012
lfemur -68.2618 9.83637 -20.1617
ltibia 76.2799
lfoot 10.5642 -9.58903
ltoes -34.8893
203
root -40.323 15.8612 -4.97626 -145.191 87.0662 -164.88
lowerback 33.7977 -2.19269 1.90548
upperback 8.92747 -1.23508 -1.27336
thorax -7.45266 -0.160103 -1.96217
lowerneck 3.42821 -0.992373 1.51818
upperneck -27.4892 0.503997 3.2974
head -9.17816 0.172976 0.760866
rclavicle -1.19271e-015 1.11319e-014
rhumerus -27.4538 6.37927 -89.3338
rradius 50.3121
rwrist -7.54182
rhand -21.2756 -10.114
rfingers 7.12502
rthumb 5.1082 -40.0324
lclavicle -1.19271e-015 1.11319e-014
lhumerus -25.2196 -0.789283 81.5727
lradius 44.9441
lwrist 27.2373
lhand -18.8947 13.9575
lfingers 7.12502
lthumb 7.40682 43.8078
rfemur -68.2579 -5.80698 21.4252
rtibia 80.2058
rfoot 2.36173 -3.47285
rtoes -14.4402
lfemur -68.3422 9.74833 -20.1172
ltibia 76.3083
lfoot 10.5617 -9.59356
ltoes -34.9569
204
root -40.3242 15.8595 -4.97493 -145.549 87.0783 -165.285
lowerback 33.9887 -2.20141 1.90784
upperback 8.93436 -1.23556 -1.28869
thorax -7.51664 -0.157508 -1.97795
lowerneck 3.45359 -0.998206 1.53201
upperneck -27.5538 0.504628 3.30353
head -9.20607 0.171725 0.760811
rclavicle 2.98177e-014 5.28767e-014
rhumerus -27.4745 6.45818 -89.3882
rradius 50.4727
rwrist -7.5673
rhand -21.2422 -10.1297
rfingers 7.12502
rthumb 5.14049 -40.0474
lclavicle 2.98177e-014 5.28767e-014
lhumerus -25.1843 -0.840333 81.5797
lradius 45.0007
lwrist 27.2669
lhand -18.9169 13.8191
lfingers 7.12502
lthumb 7.38533 43.6702
rfemur -68.3464 -5.70806 21.2693
rtibia 80.2376
rfoot 2.53675 -3.37569
rtoes -14.9179
lfemur -68.3818 9.66288 -20.0858
ltibia 76.3092
lfoot 10.4909 -9.61
ltoes -35.032
205
root -40.3245 15.8581 -4.9741 -146.111 87.1034 -165.896
lowerback 34.1471 -2.20387 1.89632
upperback 8.94608 -1.23421 -1.30593
thorax -7.56264 -0.154057 -1.98934
lowerneck 3.48102 -1.00217 1.54446
upperneck -27.611 0.505816 3.30484
head -9.23178 0.171177 0.759272
rclavicle -1.82882e-014 2.18663e-015
rhumerus -27.4936 6.53935 -89.4398
rradius 50.6182
rwrist -7.60065
rhand -21.2081 -10.152
rfingers 7.12502
rthumb 5.17341 -40.0689
lclavicle -1.82882e-014 2.18663e-015
lhumerus -25.1486 -0.889938 81.5901
lradius 45.048
lwrist 27.2985
lhand -18.9016 13.8292
lfingers 7.12502
lthumb 7.4001 43.6798
rfemur -68.4298 -5.60127 21.0825
rtibia 80.2627
rfoot 2.71603 -3.26398
rtoes -15.3438
lfemur -68.392 9.58592 -20.0789
ltibia 76.2899
lfoot 10.3474 -9.62544
ltoes -35.1063
206
root -40.3241 15.8572 -4.97383 -146.595 87.1299 -166.435
lowerback 34.2723 -2.20648 1.88639
upperback 8.96165 -1.23347 -1.31886
thorax -7.59194 -0.151122 -1.99708
lowerneck 3.50296 -1.00158 1.5445
upperneck -27.6611 0.511671 3.30752
head -9.25387 0.174006 0.759888
rclavicle -8.34896e-015 -1.19271e-015
rhumerus -27.5047 6.63542 -89.4872
rradius 50.7449
rwrist -7.64909
rhand -21.1788 -10.1691
rfingers 7.12502
rthumb 5.20176 -40.0853
lclavicle -8.34896e-015 -1.19271e-015
lhumerus -25.1107 -0.92531 81.6054
lradius 45.0822
lwrist 27.3217
lhand -18.8996 13.8521
lfingers 7.12502
lthumb 7.40201 43.7026
rfemur -68.5076 -5.48726 20.8921
rtibia 80.276
rfoot 2.8891 -3.15009
rtoes -15.7326
lfemur -68.3821 9.52307 -20.0847
ltibia 76.2545
lfoot 10.1363 -9.63029
ltoes -35.1672
207
root -40.323 15.8567 -4.97413 -146.984 87.1529 -166.88
lowerback 34.3661 -2.21095 1.8759
upperback 8.98487 -1.23511 -1.32281
thorax -7.60097 -0.14932 -1.99446
lowerneck 3.51752 -0.996108 1.52809
upperneck -27.7063 0.522631 3.31288
head -9.27285 0.180783 0.763768
rclavicle 1.94809e-014 1.66979e-014
rhumerus -27.501 6.74943 -89.5258
rradius 50.8482
rwrist -7.70845
rhand -21.175 -10.1912
rfingers 7.12502
rthumb 5.20542 -40.1072
lclavicle 1.94809e-014 1.66979e-014
lhumerus -25.0687 -0.935882 81.6283
lradius 45.1019
lwrist 27.3335
lhand -18.915 13.8611
lfingers 7.12502
lthumb 7.38724 43.7122
rfemur -68.5778 -5.37864 20.7116
rtibia 80.2809
rfoot 3.04973 -3.03973
rtoes -16.0747
lfemur -68.3554 9.47614 -20.104
ltibia 76.2104
lfoot 9.86841 -9.62037
ltoes -35.2214
208
root -40.3212 15.8564 -4.97492 -147.145 87.1681 -167.099
lowerback 34.4407 -2.21786 1.8852
upperback 9.00337 -1.23484 -1.32676
thorax -7.60833 -0.147209 -2.00316
lowerneck 3.53651 -0.991828 1.51748
upperneck -27.7424 0.532399 3.32059
head -9.28942 0.185866 0.767562
rclavicle 1.70955e-014 1.72943e-014
rhumerus -27.5028 6.85271 -89.5672
rradius 50.9291
rwrist -7.77173
rhand -21.1975 -10.2148
rfingers 7.12502
rthumb 5.1837 -40.1314
lclavicle 1.70955e-014 1.72943e-014
lhumerus -25.0389 -0.954004 81.647
lradius 45.1103
lwrist 27.3394
lhand -18.9307 13.8938
lfingers 7.12502
lthumb 7.37208 43.7454
rfemur -68.6445 -5.28313 20.5596
rtibia 80.2786
rfoot 3.1988 -2.94152
rtoes -16.3914
lfemur -68.3236 9.45153 -20.1335
ltibia 76.1646
lfoot 9.55926 -9.59559
ltoes -35.2765
209
root -40.3189 15.8562 -4.97613 -147.115 87.1773 -167.125
lowerback 34.4954 -2.22469 1.9067
upperback 9.02141 -1.23124 -1.32807
thorax -7.60891 -0.143876 -2.01691
lowerneck 3.56299 -0.989053 1.51343
upperneck -27.7755 0.540506 3.32816
head -9.30637 0.189212 0.77036
rclavicle 1.19271e-015 7.95139e-016
rhumerus -27.5058 6.94319 -89.605
rradius 50.9929
rwrist -7.83757
rhand -21.202 -10.2533
rfingers 7.12502
rthumb 5.17932 -40.17
lclavicle 1.19271e-015 7.95139e-016
lhumerus -25.0164 -0.978091 81.6664
lradius 45.1082
lwrist 27.3353
lhand -18.9556 13.9115
lfingers 7.12502
lthumb 7.34801 43.7639
rfemur -68.709 -5.21214 20.4428
rtibia 80.273
rfoot 3.33705 -2.86108
rtoes -16.6542
lfemur -68.2885 9.44934 -20.175
ltibia 76.1206
lfoot 9.23091 -9.54541
ltoes -35.3025
210
root -40.3162 15.8566 -4.97786 -146.851 87.1822 -166.919
lowerback 34.5344 -2.23241 1.94195
upperback 9.03787 -1.2252 -1.32901
thorax -7.60556 -0.139749 -2.03855
lowerneck 3.57376 -0.987058 1.51823
upperneck -27.7904 0.547419 3.33671
head -9.3139 0.191107 0.771959
rclavicle 8.74653e-015 3.63776e-014
rhumerus -27.5077 7.0178 -89.6414
rradius 51.0361
rwrist -7.90252
rhand -21.2022 -10.2657
rfingers 7.12502
rthumb 5.17911 -40.1824
lclavicle 8.74653e-015 3.63776e-014
lhumerus -25.0024 -1.0096 81.6819
lradius 45.0997
lwrist 27.3285
lhand -18.9835 13.8905
lfingers 7.12502
lthumb 7.32111 43.7439
rfemur -68.7714 -5.15526 20.3596
rtibia 80.2629
rfoot 3.45666 -2.82105
rtoes -16.8323
lfemur -68.2561 9.46847 -20.2255
ltibia 76.0771
lfoot 8.90615 -9.46874
ltoes -35.308
